<svg version="1.1" id="Layer_1" xmlns="http://www.w3.org/2000/svg" xmlns:xlink="http://www.w3.org/1999/xlink" x="0px" y="0px"
	width="100%" viewBox="0 0 300 168" enable-background="new 0 0 300 168" xml:space="preserve">
<path fill="#FEFEFE" opacity="1.000000" stroke="none" 
	d="
M133.000000,169.000000 
	C131.285645,169.000000 129.571289,169.000000 127.602974,168.612488 
	C127.947876,166.946594 129.052078,165.673981 129.066742,164.388947 
	C129.200836,152.635086 129.145584,140.879089 129.145584,129.191803 
	C126.425827,129.191803 124.338028,129.191803 121.884796,129.191803 
	C121.884796,133.140228 121.884796,136.865143 121.884796,140.838425 
	C120.397423,140.284714 119.339531,139.837524 118.249161,139.493210 
	C107.031006,135.950699 96.374069,144.685287 97.988503,156.124680 
	C98.920235,162.726639 103.750504,166.057709 109.000000,169.000000 
	C103.977905,169.000000 98.955818,169.000000 93.655243,168.616669 
	C93.974182,167.796295 95.088081,167.364899 95.092911,166.921417 
	C95.193748,157.659973 95.169029,148.397156 95.169029,139.576157 
	C89.369576,139.312820 84.169281,138.902039 78.967316,138.879654 
	C70.240936,138.842117 63.293152,146.229294 64.039200,154.683716 
	C64.698990,162.160553 69.368355,166.436218 76.000000,169.000000 
	C51.027851,169.000000 26.055700,169.000000 1.041775,169.000000 
	C1.041775,113.090263 1.041775,57.180485 1.041775,1.000000 
	C50.687233,1.000000 100.374962,1.000000 150.428009,1.320382 
	C142.772537,9.079858 138.204849,18.633291 134.481064,28.642923 
	C129.193375,42.856354 127.694016,57.524559 129.321106,72.591385 
	C144.107513,72.591385 158.502731,72.591385 172.878586,72.591385 
	C175.058136,57.699810 172.860992,43.587917 168.229645,29.668007 
	C164.682999,19.008322 158.734528,9.805007 152.000000,1.000000 
	C201.610764,1.000000 251.221542,1.000000 300.916138,1.000000 
	C300.916138,56.880962 300.916138,112.762093 300.916138,169.000000 
	C277.313629,169.000000 253.625473,169.000000 229.616898,168.675690 
	C235.376434,166.392624 237.584351,163.723709 237.281143,158.597733 
	C236.956482,153.109024 233.006409,151.631500 228.522156,150.747025 
	C226.249969,150.298843 223.921539,149.984634 221.753525,149.224716 
	C220.707016,148.857910 219.972412,147.601151 219.096588,146.747345 
	C220.038574,145.925995 220.936676,144.487061 221.932022,144.416321 
	C223.803436,144.283295 226.807419,144.305847 227.442047,145.382629 
	C229.737549,149.277374 232.815262,148.010056 236.130066,147.845551 
	C235.311508,142.605270 232.117035,139.834457 227.565521,139.118225 
	C222.252396,138.282120 216.750488,138.212952 213.101044,143.333344 
	C209.971298,147.724548 211.890793,153.869003 217.034378,155.643585 
	C219.984848,156.661545 223.215042,156.845230 226.223312,157.730621 
	C227.468933,158.097214 228.463470,159.316971 229.572189,160.148727 
	C228.471405,161.227707 227.466171,163.059647 226.248093,163.214218 
	C224.280640,163.463882 220.949875,163.257202 220.341263,162.107254 
	C217.989304,157.663483 214.566757,159.042633 211.177521,159.165085 
	C210.991318,164.946075 215.667267,166.420486 219.000000,169.000000 
	C214.975449,169.000000 210.950912,169.000000 206.621063,168.609436 
	C206.882935,167.755081 207.939896,167.296448 207.944824,166.826736 
	C208.042053,157.565994 208.017212,148.303955 208.017212,139.528687 
	C202.329178,139.281754 197.267303,138.933212 192.201828,138.869476 
	C182.308319,138.745010 175.289978,146.994370 177.007812,156.666412 
	C178.131348,162.992264 182.861252,166.201614 188.000000,169.000000 
	C182.977905,169.000000 177.955811,169.000000 172.643967,168.613739 
	C172.949341,167.617752 174.058701,167.012253 174.063721,166.397720 
	C174.165115,154.006195 174.139603,141.613632 174.139603,129.180878 
	C171.552902,129.180878 169.479736,129.180878 167.048798,129.180878 
	C167.048798,133.125809 167.048798,136.857239 167.048798,140.869308 
	C165.573227,140.305176 164.518784,139.842300 163.427704,139.494247 
	C153.739655,136.403702 144.100632,142.664246 143.141968,152.653214 
	C142.485535,159.493057 146.446121,164.952881 155.000000,169.000000 
	C149.645065,169.000000 144.290146,169.000000 138.621384,168.607697 
	C138.877945,167.753479 139.941010,167.296768 139.945953,166.828903 
	C140.043655,157.577225 140.018723,148.324249 140.018723,139.288055 
	C137.288010,139.288055 135.210983,139.288055 133.000000,139.288055 
	C133.000000,149.392090 133.000000,159.196045 133.000000,169.000000 
M109.665817,54.825741 
	C96.811699,44.120983 82.529823,36.608845 65.661209,34.671902 
	C63.312706,44.881916 69.659248,63.904499 73.974007,71.293472 
	C74.554741,72.287979 76.708542,72.772957 78.143738,72.793053 
	C87.461792,72.923515 96.782570,72.860001 106.102455,72.860008 
	C112.297447,72.860008 118.492439,72.860008 124.687431,72.860008 
	C124.919014,72.432884 125.150589,72.005768 125.382172,71.578644 
	C120.322655,66.148338 115.263138,60.718033 109.665817,54.825741 
M237.026733,45.127876 
	C237.026733,41.731781 237.026733,38.335682 237.026733,34.936623 
	C216.621521,35.522690 185.643051,55.389694 177.932373,72.858345 
	C194.006531,72.858345 209.878998,72.916298 225.748779,72.737663 
	C226.898117,72.724724 228.650314,71.208847 229.066498,70.021652 
	C231.849442,62.083241 234.345734,54.044327 237.026733,45.127876 
M185.500000,85.983826 
	C195.317047,85.983818 205.151306,85.637054 214.944168,86.123734 
	C220.183350,86.384109 222.241043,83.790207 224.094437,79.545097 
	C175.312134,79.545097 126.941849,79.545097 78.472969,79.545097 
	C80.054794,84.586189 83.044212,86.152687 88.160828,86.112228 
	C120.272217,85.858368 152.386612,85.983833 185.500000,85.983826 
M145.500000,99.025581 
	C164.654556,99.025581 183.810928,98.881653 202.962402,99.124725 
	C207.875244,99.187080 210.815887,96.969788 213.853271,93.214302 
	C171.905792,93.214302 130.560287,93.214302 88.435356,93.214302 
	C91.599556,96.873672 94.103668,99.292213 99.032349,99.166397 
	C114.179558,98.779724 129.342911,99.025581 145.500000,99.025581 
M132.696930,118.960403 
	C134.662094,119.257568 136.627274,119.554733 138.599701,119.852997 
	C138.599701,115.223824 138.599701,110.667358 138.599701,106.050323 
	C127.172386,106.050323 116.199661,106.050323 104.405014,106.050323 
	C113.252831,112.379150 122.185043,116.410126 132.696930,118.960403 
M163.062500,113.599777 
	C163.062500,115.670853 163.062500,117.741920 163.062500,119.919533 
	C175.948334,118.344269 187.023117,113.847916 197.777649,106.002220 
	C185.875061,106.002220 175.000854,106.002220 164.067719,106.002220 
	C163.727814,108.415237 163.426865,110.551697 163.062500,113.599777 
M157.255981,105.711044 
	C151.888702,105.711044 146.521439,105.711044 139.869644,105.711044 
	C143.947174,111.460663 147.295547,116.182121 151.189774,121.673256 
	C155.132324,116.000328 158.367310,111.345528 162.065521,106.024193 
	C160.052689,105.861977 159.119629,105.786789 157.255981,105.711044 
M140.037704,131.577576 
	C139.004257,126.345558 135.498383,129.901917 133.174591,129.210098 
	C133.174591,131.687439 133.174591,133.745560 133.174591,135.777710 
	C139.674225,136.337051 139.674225,136.337051 140.037704,131.577576 
z"/>
<path fill="#030303" opacity="1.000000" stroke="none" 
	d="
M151.750000,1.000000 
	C158.734528,9.805007 164.682999,19.008322 168.229645,29.668007 
	C172.860992,43.587917 175.058136,57.699810 172.878586,72.591385 
	C158.502731,72.591385 144.107513,72.591385 129.321106,72.591385 
	C127.694016,57.524559 129.193375,42.856354 134.481064,28.642923 
	C138.204849,18.633291 142.772537,9.079858 150.896667,1.320382 
	C151.000000,1.000000 151.500000,1.000000 151.750000,1.000000 
z"/>
<path fill="#050505" opacity="1.000000" stroke="none" 
	d="
M109.467941,169.000000 
	C103.750504,166.057709 98.920235,162.726639 97.988503,156.124680 
	C96.374069,144.685287 107.031006,135.950699 118.249161,139.493210 
	C119.339531,139.837524 120.397423,140.284714 121.884796,140.838425 
	C121.884796,136.865143 121.884796,133.140228 121.884796,129.191803 
	C124.338028,129.191803 126.425827,129.191803 129.145584,129.191803 
	C129.145584,140.879089 129.200836,152.635086 129.066742,164.388947 
	C129.052078,165.673981 127.947876,166.946594 127.174515,168.612488 
	C121.311958,169.000000 115.623917,169.000000 109.467941,169.000000 
M114.295593,162.058426 
	C120.464615,160.450363 123.373672,155.853073 121.368080,150.881500 
	C119.788803,146.966705 115.587448,144.502930 111.883270,145.319366 
	C107.613754,146.260422 104.652573,150.054337 104.873779,154.300095 
	C105.100327,158.648315 108.013603,161.297897 114.295593,162.058426 
z"/>
<path fill="#050505" opacity="1.000000" stroke="none" 
	d="
M155.467606,169.000000 
	C146.446121,164.952881 142.485535,159.493057 143.141968,152.653214 
	C144.100632,142.664246 153.739655,136.403702 163.427704,139.494247 
	C164.518784,139.842300 165.573227,140.305176 167.048798,140.869308 
	C167.048798,136.857239 167.048798,133.125809 167.048798,129.180878 
	C169.479736,129.180878 171.552902,129.180878 174.139603,129.180878 
	C174.139603,141.613632 174.165115,154.006195 174.063721,166.397720 
	C174.058701,167.012253 172.949341,167.617752 172.177109,168.613739 
	C166.645065,169.000000 161.290146,169.000000 155.467606,169.000000 
M151.553787,149.240082 
	C148.918915,155.469849 151.279404,161.069778 157.005219,161.982590 
	C161.299805,162.667267 164.623993,161.028275 166.358932,157.051422 
	C168.106430,153.045792 166.957214,149.551407 163.464325,146.934830 
	C159.643921,144.072937 156.473999,144.576431 151.553787,149.240082 
z"/>
<path fill="#040404" opacity="1.000000" stroke="none" 
	d="
M188.467941,169.000000 
	C182.861252,166.201614 178.131348,162.992264 177.007812,156.666412 
	C175.289978,146.994370 182.308319,138.745010 192.201828,138.869476 
	C197.267303,138.933212 202.329178,139.281754 208.017212,139.528687 
	C208.017212,148.303955 208.042053,157.565994 207.944824,166.826736 
	C207.939896,167.296448 206.882935,167.755081 206.157898,168.609436 
	C200.311966,169.000000 194.623917,169.000000 188.467941,169.000000 
M185.135269,158.091080 
	C189.057053,162.378799 193.080673,163.333649 196.830429,160.866455 
	C200.486252,158.461060 201.758652,153.783676 199.799881,149.950607 
	C197.768616,145.975662 193.255157,144.232956 189.334976,145.909927 
	C184.727737,147.880814 183.190796,151.777130 185.135269,158.091080 
z"/>
<path fill="#050505" opacity="1.000000" stroke="none" 
	d="
M76.467606,169.000000 
	C69.368355,166.436218 64.698990,162.160553 64.039200,154.683716 
	C63.293152,146.229294 70.240936,138.842117 78.967316,138.879654 
	C84.169281,138.902039 89.369576,139.312820 95.169029,139.576157 
	C95.169029,148.397156 95.193748,157.659973 95.092911,166.921417 
	C95.088081,167.364899 93.974182,167.796295 93.188377,168.616669 
	C87.645073,169.000000 82.290138,169.000000 76.467606,169.000000 
M76.564194,145.877930 
	C71.193428,149.302673 69.721153,152.888855 71.888985,157.265778 
	C73.877655,161.280960 78.153931,163.139893 82.309326,161.795578 
	C86.319504,160.498276 88.821724,156.124283 87.953407,151.929443 
	C87.023369,147.436478 82.841675,144.952820 76.564194,145.877930 
z"/>
<path fill="#070707" opacity="1.000000" stroke="none" 
	d="
M219.454102,169.000000 
	C215.667267,166.420486 210.991318,164.946075 211.177521,159.165085 
	C214.566757,159.042633 217.989304,157.663483 220.341263,162.107254 
	C220.949875,163.257202 224.280640,163.463882 226.248093,163.214218 
	C227.466171,163.059647 228.471405,161.227707 229.572189,160.148727 
	C228.463470,159.316971 227.468933,158.097214 226.223312,157.730621 
	C223.215042,156.845230 219.984848,156.661545 217.034378,155.643585 
	C211.890793,153.869003 209.971298,147.724548 213.101044,143.333344 
	C216.750488,138.212952 222.252396,138.282120 227.565521,139.118225 
	C232.117035,139.834457 235.311508,142.605270 236.130066,147.845551 
	C232.815262,148.010056 229.737549,149.277374 227.442047,145.382629 
	C226.807419,144.305847 223.803436,144.283295 221.932022,144.416321 
	C220.936676,144.487061 220.038574,145.925995 219.096588,146.747345 
	C219.972412,147.601151 220.707016,148.857910 221.753525,149.224716 
	C223.921539,149.984634 226.249969,150.298843 228.522156,150.747025 
	C233.006409,151.631500 236.956482,153.109024 237.281143,158.597733 
	C237.584351,163.723709 235.376434,166.392624 229.148239,168.675690 
	C225.969406,169.000000 222.938812,169.000000 219.454102,169.000000 
z"/>
<path fill="#000000" opacity="1.000000" stroke="none" 
	d="
M133.416656,169.000000 
	C133.000000,159.196045 133.000000,149.392090 133.000000,139.288055 
	C135.210983,139.288055 137.288010,139.288055 140.018723,139.288055 
	C140.018723,148.324249 140.043655,157.577225 139.945953,166.828903 
	C139.941010,167.296768 138.877945,167.753479 138.153778,168.607697 
	C136.611115,169.000000 135.222214,169.000000 133.416656,169.000000 
z"/>
<path fill="#040404" opacity="1.000000" stroke="none" 
	d="
M109.934723,55.056732 
	C115.263138,60.718033 120.322655,66.148338 125.382172,71.578644 
	C125.150589,72.005768 124.919014,72.432884 124.687431,72.860008 
	C118.492439,72.860008 112.297447,72.860008 106.102455,72.860008 
	C96.782570,72.860001 87.461792,72.923515 78.143738,72.793053 
	C76.708542,72.772957 74.554741,72.287979 73.974007,71.293472 
	C69.659248,63.904499 63.312706,44.881916 65.661209,34.671902 
	C82.529823,36.608845 96.811699,44.120983 109.934723,55.056732 
z"/>
<path fill="#040404" opacity="1.000000" stroke="none" 
	d="
M236.980896,45.582954 
	C234.345734,54.044327 231.849442,62.083241 229.066498,70.021652 
	C228.650314,71.208847 226.898117,72.724724 225.748779,72.737663 
	C209.878998,72.916298 194.006531,72.858345 177.932373,72.858345 
	C185.643051,55.389694 216.621521,35.522690 237.026733,34.936623 
	C237.026733,38.335682 237.026733,41.731781 236.980896,45.582954 
z"/>
<path fill="#111111" opacity="1.000000" stroke="none" 
	d="
M185.000000,85.983826 
	C152.386612,85.983833 120.272217,85.858368 88.160828,86.112228 
	C83.044212,86.152687 80.054794,84.586189 78.472969,79.545097 
	C126.941849,79.545097 175.312134,79.545097 224.094437,79.545097 
	C222.241043,83.790207 220.183350,86.384109 214.944168,86.123734 
	C205.151306,85.637054 195.317047,85.983818 185.000000,85.983826 
z"/>
<path fill="#010101" opacity="1.000000" stroke="none" 
	d="
M145.000000,99.025581 
	C129.342911,99.025581 114.179558,98.779724 99.032349,99.166397 
	C94.103668,99.292213 91.599556,96.873672 88.435356,93.214302 
	C130.560287,93.214302 171.905792,93.214302 213.853271,93.214302 
	C210.815887,96.969788 207.875244,99.187080 202.962402,99.124725 
	C183.810928,98.881653 164.654556,99.025581 145.000000,99.025581 
z"/>
<path fill="#040404" opacity="1.000000" stroke="none" 
	d="
M132.286606,118.886658 
	C122.185043,116.410126 113.252831,112.379150 104.405014,106.050323 
	C116.199661,106.050323 127.172386,106.050323 138.599701,106.050323 
	C138.599701,110.667358 138.599701,115.223824 138.599701,119.852997 
	C136.627274,119.554733 134.662094,119.257568 132.286606,118.886658 
z"/>
<path fill="#040404" opacity="1.000000" stroke="none" 
	d="
M163.094208,113.143967 
	C163.426865,110.551697 163.727814,108.415237 164.067719,106.002220 
	C175.000854,106.002220 185.875061,106.002220 197.777649,106.002220 
	C187.023117,113.847916 175.948334,118.344269 163.062500,119.919533 
	C163.062500,117.741920 163.062500,115.670853 163.094208,113.143967 
z"/>
<path fill="#040404" opacity="1.000000" stroke="none" 
	d="
M157.721283,105.711319 
	C159.119629,105.786789 160.052689,105.861977 162.065521,106.024193 
	C158.367310,111.345528 155.132324,116.000328 151.189774,121.673256 
	C147.295547,116.182121 143.947174,111.460663 139.869644,105.711044 
	C146.521439,105.711044 151.888702,105.711044 157.721283,105.711319 
z"/>
<path fill="#000000" opacity="1.000000" stroke="none" 
	d="
M140.037720,132.049652 
	C139.674225,136.337051 139.674225,136.337051 133.174591,135.777710 
	C133.174591,133.745560 133.174591,131.687439 133.174591,129.210098 
	C135.498383,129.901917 139.004257,126.345558 140.037720,132.049652 
z"/>
<path fill="#F8F8F8" opacity="1.000000" stroke="none" 
	d="
M113.892418,162.097076 
	C108.013603,161.297897 105.100327,158.648315 104.873779,154.300095 
	C104.652573,150.054337 107.613754,146.260422 111.883270,145.319366 
	C115.587448,144.502930 119.788803,146.966705 121.368080,150.881500 
	C123.373672,155.853073 120.464615,160.450363 113.892418,162.097076 
z"/>
<path fill="#F7F7F7" opacity="1.000000" stroke="none" 
	d="
M151.782333,148.934830 
	C156.473999,144.576431 159.643921,144.072937 163.464325,146.934830 
	C166.957214,149.551407 168.106430,153.045792 166.358932,157.051422 
	C164.623993,161.028275 161.299805,162.667267 157.005219,161.982590 
	C151.279404,161.069778 148.918915,155.469849 151.782333,148.934830 
z"/>
<path fill="#F7F7F7" opacity="1.000000" stroke="none" 
	d="
M184.977188,157.724625 
	C183.190796,151.777130 184.727737,147.880814 189.334976,145.909927 
	C193.255157,144.232956 197.768616,145.975662 199.799881,149.950607 
	C201.758652,153.783676 200.486252,158.461060 196.830429,160.866455 
	C193.080673,163.333649 189.057053,162.378799 184.977188,157.724625 
z"/>
<path fill="#F7F7F7" opacity="1.000000" stroke="none" 
	d="
M76.917183,145.731110 
	C82.841675,144.952820 87.023369,147.436478 87.953407,151.929443 
	C88.821724,156.124283 86.319504,160.498276 82.309326,161.795578 
	C78.153931,163.139893 73.877655,161.280960 71.888985,157.265778 
	C69.721153,152.888855 71.193428,149.302673 76.917183,145.731110 
z"/>
</svg>